<svg width="1520" height="842" viewBox="0 0 1520 842" fill="none" xmlns="http://www.w3.org/2000/svg">
<g filter="url(#filter0_d_340_2)">
<ellipse cx="245.815" cy="177.5" rx="15.4489" ry="15.5" fill="#EAF2CE"/>
</g>
<g filter="url(#filter1_d_340_2)">
<ellipse cx="631.539" cy="118.5" rx="15.4489" ry="15.5" fill="#EAF2CE"/>
</g>
<g filter="url(#filter2_d_340_2)">
<ellipse cx="1327.12" cy="49.5" rx="15.4489" ry="15.5" fill="#EAF2CE"/>
</g>
<path d="M1178.6 184.5C1178.6 197.217 1168.33 207.5 1155.69 207.5C1143.05 207.5 1132.78 197.217 1132.78 184.5C1132.78 171.783 1143.05 161.5 1155.69 161.5C1168.33 161.5 1178.6 171.783 1178.6 184.5Z" stroke="#B6D96A" stroke-width="9"/>
<g filter="url(#filter3_i_340_2)">
<path d="M203.315 357.778L204.9 295.974L240.216 296.885C246.486 297.047 251.278 298.675 254.591 301.77C257.905 304.864 259.492 309.163 259.351 314.665C259.27 317.8 258.626 320.44 257.419 322.586C256.275 324.733 254.76 326.422 252.872 327.654C255.403 328.808 257.38 330.363 258.802 332.321C260.226 334.214 260.89 337.016 260.795 340.727C260.646 346.549 258.674 351.044 254.88 354.211C251.085 357.378 245.861 358.876 239.207 358.704L203.315 357.778ZM223.857 320.663L234.03 320.926C237.741 321.022 239.639 319.406 239.724 316.079C239.765 314.48 239.316 313.252 238.378 312.395C237.505 311.476 236.045 310.99 233.998 310.938L224.113 310.683L223.857 320.663ZM223.254 344.176L233.811 344.448C237.714 344.549 239.711 342.808 239.803 339.225C239.888 335.898 237.915 334.182 233.885 334.078L223.52 333.811L223.254 344.176Z" fill="#707365"/>
</g>
<g filter="url(#filter4_i_340_2)">
<path d="M278.047 359.764L285.266 298.363L333.029 304.016L331.246 319.176L303.981 315.949L303.061 323.767L326.8 326.576L324.972 342.117L301.234 339.308L300.326 347.031L327.592 350.258L325.809 365.417L278.047 359.764Z" fill="#707365"/>
</g>
<g filter="url(#filter5_i_340_2)">
<path d="M374.461 376.916C363.443 374.286 355.659 369.665 351.11 363.052C346.561 356.44 345.475 348.12 347.852 338.094C350.258 327.943 355.116 320.911 362.424 316.997C369.732 313.082 379.113 312.492 390.568 315.226C394.427 316.147 397.8 317.182 400.684 318.331C403.631 319.495 406.395 320.878 408.974 322.481L404.922 339.575C402.309 337.833 399.584 336.426 396.747 335.354C393.924 334.22 390.988 333.289 387.938 332.561C382.833 331.342 378.591 331.481 375.21 332.977C371.83 334.474 369.527 337.806 368.301 342.975C367.12 347.957 367.399 351.774 369.138 354.426C370.954 357.031 374.041 358.853 378.399 359.893C381.076 360.532 383.515 360.785 385.717 360.653L387.179 354.487L376.254 351.88L379.155 339.643L406.794 346.24L399.53 376.879C396.733 377.856 393.241 378.437 389.053 378.622C384.866 378.807 380.002 378.238 374.461 376.916Z" fill="#707365"/>
</g>
<g filter="url(#filter6_i_340_2)">
<path d="M421.484 386.472L439.091 327.208L458.866 333.122L441.258 392.386L421.484 386.472Z" fill="#707365"/>
</g>
<g filter="url(#filter7_i_340_2)">
<path d="M464.167 401.473L482.305 342.369L498.907 347.498L509.988 380.762L518.352 353.504L538.073 359.596L519.935 418.7L503.15 413.515L492.224 380.399L483.888 407.565L464.167 401.473Z" fill="#707365"/>
</g>
<g filter="url(#filter8_i_340_2)">
<path d="M586.934 447.219L589.053 380.985L608.857 389.365L606.21 429.107L632.816 399.502L652.709 407.919L606.827 455.636L586.934 447.219Z" fill="#53A62D"/>
</g>
<g filter="url(#filter9_i_340_2)">
<path d="M638.091 470.874L664.629 415.036L708.016 435.793L701.464 449.579L676.696 437.73L673.317 444.84L694.88 455.156L688.163 469.289L666.6 458.973L663.262 465.996L688.029 477.845L681.477 491.631L638.091 470.874Z" fill="#53A62D"/>
</g>
<g filter="url(#filter10_i_340_2)">
<path d="M722.735 516.01C712.742 510.675 706.38 504.231 703.649 496.678C700.917 489.126 701.965 480.798 706.793 471.695C711.681 462.479 718.153 456.902 726.208 454.963C734.264 453.025 743.485 454.828 753.873 460.375C757.374 462.243 760.374 464.099 762.874 465.942C765.43 467.814 767.754 469.853 769.845 472.058L761.613 487.578C759.526 485.23 757.246 483.178 754.772 481.422C752.328 479.61 749.723 477.965 746.957 476.488C742.328 474.016 738.189 473.077 734.543 473.669C730.896 474.261 727.828 476.904 725.339 481.597C722.94 486.12 722.247 489.885 723.26 492.893C724.36 495.874 726.885 498.419 730.837 500.529C733.265 501.825 735.56 502.688 737.723 503.117L740.692 497.52L730.784 492.23L736.676 481.12L761.743 494.503L746.989 522.321C744.038 522.559 740.514 522.237 736.417 521.356C732.321 520.475 727.76 518.693 722.735 516.01Z" fill="#53A62D"/>
</g>
<g filter="url(#filter11_i_340_2)">
<path d="M754.132 532.702L808 494.312L825.972 506.294L811.642 571.045L793.75 559.116L796.542 546.209L782.724 536.996L772.024 544.631L754.132 532.702ZM792.752 526.375L802.417 532.819L805.814 517.084L792.752 526.375Z" fill="#53A62D"/>
</g>
<g filter="url(#filter12_i_340_2)">
<path d="M822.502 581.856L858.801 531.81L872.834 542.056L872.531 577.137L889.272 554.057L905.941 566.228L869.642 616.274L855.454 605.915L855.856 571.024L839.172 594.027L822.502 581.856Z" fill="#53A62D"/>
</g>

<g filter="url(#filter13_d_340_2)">
<rect width="18.0878" height="15.7751" transform="matrix(0.973384 -0.22918 0.22775 0.97372 1307.08 193.964)" fill="#638724"/>
<path fill-rule="evenodd" clip-rule="evenodd" d="M1325.2 154.049C1325.17 153.919 1325.14 153.789 1325.11 153.659C1322.88 144.115 1313.36 138.194 1303.84 140.434C1294.33 142.673 1288.43 152.226 1290.66 161.77C1290.69 161.898 1290.72 162.026 1290.76 162.152L1290.42 162.232C1280.88 164.478 1274.95 174.036 1277.19 183.579C1279.42 193.123 1288.96 199.039 1298.5 196.793L1332.85 188.706C1342.39 186.46 1348.31 176.902 1346.08 167.358C1343.88 157.958 1334.59 152.078 1325.2 154.049Z" fill="#88B337"/>
</g>
<g filter="url(#filter14_d_340_2)">
<path fill-rule="evenodd" clip-rule="evenodd" d="M290.375 25.1741C280.809 30.5279 277.372 42.6354 282.699 52.2171L292.044 69.0276C282.34 67.5809 272.84 73.5501 270.09 83.272C267.1 93.8367 273.213 104.832 283.743 107.831L305.663 114.074C300.348 116.35 296.067 120.927 294.366 126.939C291.376 137.503 297.489 148.499 308.019 151.498L331.508 158.188C325.696 160.283 320.942 165.064 319.127 171.479C316.138 182.043 322.251 193.039 332.781 196.038L356.977 202.929L356.943 203.051L395.074 213.911L395.109 213.79L395.229 213.824L406.054 175.566L405.934 175.532L412.802 151.256C415.791 140.691 409.679 129.696 399.149 126.697C392.755 124.875 386.203 126.421 381.373 130.282L388.041 106.716C391.03 96.1512 384.917 85.1556 374.387 82.1565C368.395 80.4499 362.264 81.7004 357.542 85.0417L363.765 63.0493C366.754 52.4847 360.641 41.4891 350.111 38.49C340.512 35.7561 330.557 40.6109 326.607 49.4936L317.343 32.8295C312.016 23.2478 299.942 19.8204 290.375 25.1741Z" fill="#B6D96A"/>
<path fill-rule="evenodd" clip-rule="evenodd" d="M378.712 172.042L361.302 140.726L371.105 106.079L361.517 103.349L354.436 128.375L338.968 100.553L348.771 65.9061L339.183 63.1753L332.102 88.2021L313.925 55.5067L305.198 60.3902L323.303 92.9564L297.601 85.6359L294.607 96.2178L330.856 106.542L345.637 133.13L319.935 125.809L316.941 136.391L353.19 146.716L369.913 176.796L344.211 169.476L341.217 180.058L377.466 190.382L407.192 243.851L415.918 238.968L385.578 184.393L395.381 149.746L385.793 147.015L378.712 172.042Z" fill="#88B337"/>
</g>
<path opacity="0.7" fill-rule="evenodd" clip-rule="evenodd" d="M1199.64 88.1355C1197.38 80.7277 1189.57 76.5955 1182.23 78.8555C1174.89 81.1156 1170.74 88.9312 1173 96.3391L1166.31 98.3993C1162.92 87.3118 1169.13 75.5649 1180.18 72.1618C1191.23 68.7586 1202.94 74.9879 1206.33 86.0753L1199.64 88.1355Z" fill="#DE4C3C"/>
<path opacity="0.7" fill-rule="evenodd" clip-rule="evenodd" d="M508.306 279.418C514.294 274.569 515.235 265.763 510.395 259.746C505.555 253.73 496.777 252.795 490.789 257.644L486.402 252.19C495.397 244.905 508.575 246.316 515.835 255.341C523.096 264.366 521.689 277.587 512.694 284.872L508.306 279.418Z" fill="#DE4C3C"/>
<path opacity="0.7" fill-rule="evenodd" clip-rule="evenodd" d="M105.91 146.916C109.42 153.81 117.823 156.525 124.666 153.017C131.508 149.51 134.24 141.088 130.729 134.193L136.958 131C142.218 141.328 138.136 153.978 127.842 159.255C117.548 164.532 104.94 160.437 99.6803 150.109L105.91 146.916Z" fill="#DE4C3C"/>
<path d="M560.758 61.5C560.758 74.2166 550.487 84.5 537.849 84.5C525.21 84.5 514.939 74.2166 514.939 61.5C514.939 48.7834 525.21 38.5 537.849 38.5C550.487 38.5 560.758 48.7834 560.758 61.5Z" stroke="#B6D96A" stroke-width="9"/>
<g filter="url(#filter15_d_340_2)">
<ellipse rx="15.4925" ry="15.4564" transform="matrix(0.382355 -0.924016 0.923119 0.384514 925.209 234.258)" fill="#EAF2CE"/>
</g>
<path opacity="0.7" fill-rule="evenodd" clip-rule="evenodd" d="M1059.98 423.127L1066.7 421.149C1063.44 410.021 1051.81 403.648 1040.72 406.916C1029.63 410.183 1023.27 421.853 1026.53 432.981C1026.53 432.981 1026.53 432.981 1026.53 432.981L1033.25 431.003C1033.25 431.003 1033.25 431.003 1033.25 431.003C1031.07 423.568 1035.32 415.804 1042.68 413.634C1050.05 411.464 1057.81 415.692 1059.98 423.127Z" fill="#DE4C3C"/>
<g filter="url(#filter16_d_340_2)">
<path fill-rule="evenodd" clip-rule="evenodd" d="M700.548 186.412L699.48 190.152C699.64 190.192 699.8 190.236 699.961 190.282C708.156 192.64 712.895 201.217 710.545 209.44C708.373 217.036 700.912 221.672 693.326 220.475L691.109 219.837C691.106 219.852 691.102 219.866 691.098 219.88C691.093 219.902 691.087 219.925 691.081 219.948C691.045 219.936 691.009 219.925 690.973 219.913L690.337 222.138C687.328 229.226 679.456 233.117 671.885 230.939C664.766 228.891 660.256 222.151 660.733 215.027L661.802 211.288C661.642 211.247 661.481 211.204 661.321 211.158C653.125 208.8 648.387 200.222 650.737 192C652.908 184.403 660.37 179.767 667.956 180.964L670.172 181.602C670.182 181.565 670.191 181.529 670.201 181.492C670.237 181.503 670.273 181.515 670.309 181.526L670.945 179.302C673.953 172.213 681.826 168.322 689.397 170.5C696.515 172.548 701.025 179.288 700.548 186.412ZM707.562 186.066C707.871 176.019 701.394 166.658 691.323 163.761C681.36 160.894 671.036 165.263 665.933 173.766C656.041 173.603 646.877 180.07 644.019 190.067C641.193 199.956 645.424 210.197 653.719 215.374C653.41 225.42 659.888 234.781 669.958 237.679C679.922 240.546 690.245 236.176 695.349 227.673C705.241 227.837 714.405 221.369 717.262 211.373C720.089 201.484 715.858 191.242 707.562 186.066Z" fill="#53A62D"/>
</g>
<g filter="url(#filter17_d_340_2)">
<path fill-rule="evenodd" clip-rule="evenodd" d="M1193.56 336.129C1193.94 354.389 1186.27 370.29 1174.91 377.689L1174.91 377.682C1163.26 370.764 1154.94 355.196 1154.57 336.937C1154.19 318.677 1161.85 302.776 1173.21 295.377L1173.21 295.384C1184.86 302.302 1193.18 317.87 1193.56 336.129Z" fill="#638724"/>
<path d="M1173.13 309C1176.11 332.992 1176.11 345.141 1171.76 363.411" stroke="#707365"/>
<path fill-rule="evenodd" clip-rule="evenodd" d="M1202.02 367.025C1192.43 376.721 1179.92 380.852 1170.05 378.569L1213.29 334.862C1215.64 344.748 1211.61 357.328 1202.02 367.025ZM1181.32 346.404C1190.91 336.707 1203.42 332.576 1213.29 334.859L1170.06 378.566C1167.71 368.68 1171.73 356.1 1181.32 346.404Z" fill="#B6D96A"/>
<path d="M1172.13 377C1183.29 361.851 1189.79 354.988 1202.03 347" stroke="#707365"/>
</g>
<g filter="url(#filter18_i_340_2)">
<path d="M3 440C221.777 377.5 691.127 456.096 1012.16 829.5L1515 443" stroke="#EAF2CE" stroke-width="15"/>
</g>
<g filter="url(#filter19_i_340_2)">
<path fill-rule="evenodd" clip-rule="evenodd" d="M1515 300.942C1478.75 315.093 1441.84 331.937 1404.99 352.51C1261 432.887 1117.85 570.023 1015.37 825.029L1015.31 825.037L1015.32 825.137L1015.24 825.348L1015.36 825.396L1017.56 841.887C1247.03 811.269 1403.17 732.258 1515 636.761V614.223C1408.1 709.089 1257.99 789.203 1034.83 822.289C1135.6 576.649 1274.46 444.843 1413.28 367.353C1447.36 348.324 1481.44 332.561 1515 319.193V300.942Z" fill="#B6D96A"/>
</g>
<defs>
<filter id="filter0_d_340_2" x="226.366" y="162" width="38.8977" height="39" filterUnits="userSpaceOnUse" color-interpolation-filters="sRGB">
<feFlood flood-opacity="0" result="BackgroundImageFix"/>
<feColorMatrix in="SourceAlpha" type="matrix" values="0 0 0 0 0 0 0 0 0 0 0 0 0 0 0 0 0 0 127 0" result="hardAlpha"/>
<feOffset dy="4"/>
<feGaussianBlur stdDeviation="2"/>
<feComposite in2="hardAlpha" operator="out"/>
<feColorMatrix type="matrix" values="0 0 0 0 0 0 0 0 0 0 0 0 0 0 0 0 0 0 0.25 0"/>
<feBlend mode="normal" in2="BackgroundImageFix" result="effect1_dropShadow_340_2"/>
<feBlend mode="normal" in="SourceGraphic" in2="effect1_dropShadow_340_2" result="shape"/>
</filter>
<filter id="filter1_d_340_2" x="612.09" y="103" width="38.8978" height="39" filterUnits="userSpaceOnUse" color-interpolation-filters="sRGB">
<feFlood flood-opacity="0" result="BackgroundImageFix"/>
<feColorMatrix in="SourceAlpha" type="matrix" values="0 0 0 0 0 0 0 0 0 0 0 0 0 0 0 0 0 0 127 0" result="hardAlpha"/>
<feOffset dy="4"/>
<feGaussianBlur stdDeviation="2"/>
<feComposite in2="hardAlpha" operator="out"/>
<feColorMatrix type="matrix" values="0 0 0 0 0 0 0 0 0 0 0 0 0 0 0 0 0 0 0.25 0"/>
<feBlend mode="normal" in2="BackgroundImageFix" result="effect1_dropShadow_340_2"/>
<feBlend mode="normal" in="SourceGraphic" in2="effect1_dropShadow_340_2" result="shape"/>
</filter>
<filter id="filter2_d_340_2" x="1307.67" y="34" width="38.8978" height="39" filterUnits="userSpaceOnUse" color-interpolation-filters="sRGB">
<feFlood flood-opacity="0" result="BackgroundImageFix"/>
<feColorMatrix in="SourceAlpha" type="matrix" values="0 0 0 0 0 0 0 0 0 0 0 0 0 0 0 0 0 0 127 0" result="hardAlpha"/>
<feOffset dy="4"/>
<feGaussianBlur stdDeviation="2"/>
<feComposite in2="hardAlpha" operator="out"/>
<feColorMatrix type="matrix" values="0 0 0 0 0 0 0 0 0 0 0 0 0 0 0 0 0 0 0.25 0"/>
<feBlend mode="normal" in2="BackgroundImageFix" result="effect1_dropShadow_340_2"/>
<feBlend mode="normal" in="SourceGraphic" in2="effect1_dropShadow_340_2" result="shape"/>
</filter>
<filter id="filter3_i_340_2" x="203.315" y="295.974" width="58.5896" height="67.2744" filterUnits="userSpaceOnUse" color-interpolation-filters="sRGB">
<feFlood flood-opacity="0" result="BackgroundImageFix"/>
<feBlend mode="normal" in="SourceGraphic" in2="BackgroundImageFix" result="shape"/>
<feColorMatrix in="SourceAlpha" type="matrix" values="0 0 0 0 0 0 0 0 0 0 0 0 0 0 0 0 0 0 127 0" result="hardAlpha"/>
<feOffset dy="4"/>
<feGaussianBlur stdDeviation="2"/>
<feComposite in2="hardAlpha" operator="arithmetic" k2="-1" k3="1"/>
<feColorMatrix type="matrix" values="0 0 0 0 0 0 0 0 0 0 0 0 0 0 0 0 0 0 0.25 0"/>
<feBlend mode="normal" in2="shape" result="effect1_innerShadow_340_2"/>
</filter>
<filter id="filter4_i_340_2" x="278.047" y="298.363" width="54.9822" height="71.0537" filterUnits="userSpaceOnUse" color-interpolation-filters="sRGB">
<feFlood flood-opacity="0" result="BackgroundImageFix"/>
<feBlend mode="normal" in="SourceGraphic" in2="BackgroundImageFix" result="shape"/>
<feColorMatrix in="SourceAlpha" type="matrix" values="0 0 0 0 0 0 0 0 0 0 0 0 0 0 0 0 0 0 127 0" result="hardAlpha"/>
<feOffset dy="4"/>
<feGaussianBlur stdDeviation="2"/>
<feComposite in2="hardAlpha" operator="arithmetic" k2="-1" k3="1"/>
<feColorMatrix type="matrix" values="0 0 0 0 0 0 0 0 0 0 0 0 0 0 0 0 0 0 0.25 0"/>
<feBlend mode="normal" in2="shape" result="effect1_innerShadow_340_2"/>
</filter>
<filter id="filter5_i_340_2" x="340.565" y="306.802" width="72.3196" height="79.7749" filterUnits="userSpaceOnUse" color-interpolation-filters="sRGB">
<feFlood flood-opacity="0" result="BackgroundImageFix"/>
<feBlend mode="normal" in="SourceGraphic" in2="BackgroundImageFix" result="shape"/>
<feColorMatrix in="SourceAlpha" type="matrix" values="0 0 0 0 0 0 0 0 0 0 0 0 0 0 0 0 0 0 127 0" result="hardAlpha"/>
<feOffset dy="4"/>
<feGaussianBlur stdDeviation="2"/>
<feComposite in2="hardAlpha" operator="arithmetic" k2="-1" k3="1"/>
<feColorMatrix type="matrix" values="0 0 0 0 0 0 0 0 0 0 0 0 0 0 0 0 0 0 0.25 0"/>
<feBlend mode="normal" in2="shape" result="effect1_innerShadow_340_2"/>
</filter>
<filter id="filter6_i_340_2" x="421.484" y="327.208" width="37.3818" height="69.1777" filterUnits="userSpaceOnUse" color-interpolation-filters="sRGB">
<feFlood flood-opacity="0" result="BackgroundImageFix"/>
<feBlend mode="normal" in="SourceGraphic" in2="BackgroundImageFix" result="shape"/>
<feColorMatrix in="SourceAlpha" type="matrix" values="0 0 0 0 0 0 0 0 0 0 0 0 0 0 0 0 0 0 127 0" result="hardAlpha"/>
<feOffset dy="4"/>
<feGaussianBlur stdDeviation="2"/>
<feComposite in2="hardAlpha" operator="arithmetic" k2="-1" k3="1"/>
<feColorMatrix type="matrix" values="0 0 0 0 0 0 0 0 0 0 0 0 0 0 0 0 0 0 0.25 0"/>
<feBlend mode="normal" in2="shape" result="effect1_innerShadow_340_2"/>
</filter>
<filter id="filter7_i_340_2" x="464.167" y="342.369" width="73.9053" height="80.3306" filterUnits="userSpaceOnUse" color-interpolation-filters="sRGB">
<feFlood flood-opacity="0" result="BackgroundImageFix"/>
<feBlend mode="normal" in="SourceGraphic" in2="BackgroundImageFix" result="shape"/>
<feColorMatrix in="SourceAlpha" type="matrix" values="0 0 0 0 0 0 0 0 0 0 0 0 0 0 0 0 0 0 127 0" result="hardAlpha"/>
<feOffset dy="4"/>
<feGaussianBlur stdDeviation="2"/>
<feComposite in2="hardAlpha" operator="arithmetic" k2="-1" k3="1"/>
<feColorMatrix type="matrix" values="0 0 0 0 0 0 0 0 0 0 0 0 0 0 0 0 0 0 0.25 0"/>
<feBlend mode="normal" in2="shape" result="effect1_innerShadow_340_2"/>
</filter>
<filter id="filter8_i_340_2" x="565.096" y="380.985" width="87.6127" height="87.9277" filterUnits="userSpaceOnUse" color-interpolation-filters="sRGB">
<feFlood flood-opacity="0" result="BackgroundImageFix"/>
<feBlend mode="normal" in="SourceGraphic" in2="BackgroundImageFix" result="shape"/>
<feColorMatrix in="SourceAlpha" type="matrix" values="0 0 0 0 0 0 0 0 0 0 0 0 0 0 0 0 0 0 127 0" result="hardAlpha"/>
<feOffset dy="4"/>
<feGaussianBlur stdDeviation="2"/>
<feComposite in2="hardAlpha" operator="arithmetic" k2="-1" k3="1"/>
<feColorMatrix type="matrix" values="0 0 0 0 0 0 0 0 0 0 0 0 0 0 0 0 0 0 0.25 0"/>
<feBlend mode="normal" in2="shape" result="effect1_innerShadow_340_2"/>
</filter>
<filter id="filter9_i_340_2" x="638.091" y="415.036" width="69.9248" height="80.5952" filterUnits="userSpaceOnUse" color-interpolation-filters="sRGB">
<feFlood flood-opacity="0" result="BackgroundImageFix"/>
<feBlend mode="normal" in="SourceGraphic" in2="BackgroundImageFix" result="shape"/>
<feColorMatrix in="SourceAlpha" type="matrix" values="0 0 0 0 0 0 0 0 0 0 0 0 0 0 0 0 0 0 127 0" result="hardAlpha"/>
<feOffset dy="4"/>
<feGaussianBlur stdDeviation="2"/>
<feComposite in2="hardAlpha" operator="arithmetic" k2="-1" k3="1"/>
<feColorMatrix type="matrix" values="0 0 0 0 0 0 0 0 0 0 0 0 0 0 0 0 0 0 0.25 0"/>
<feBlend mode="normal" in2="shape" result="effect1_innerShadow_340_2"/>
</filter>
<filter id="filter10_i_340_2" x="691.994" y="443.284" width="82.1191" height="88.2104" filterUnits="userSpaceOnUse" color-interpolation-filters="sRGB">
<feFlood flood-opacity="0" result="BackgroundImageFix"/>
<feBlend mode="normal" in="SourceGraphic" in2="BackgroundImageFix" result="shape"/>
<feColorMatrix in="SourceAlpha" type="matrix" values="0 0 0 0 0 0 0 0 0 0 0 0 0 0 0 0 0 0 127 0" result="hardAlpha"/>
<feOffset dy="4"/>
<feGaussianBlur stdDeviation="2"/>
<feComposite in2="hardAlpha" operator="arithmetic" k2="-1" k3="1"/>
<feColorMatrix type="matrix" values="0 0 0 0 0 0 0 0 0 0 0 0 0 0 0 0 0 0 0.25 0"/>
<feBlend mode="normal" in2="shape" result="effect1_innerShadow_340_2"/>
</filter>
<filter id="filter11_i_340_2" x="754.132" y="481.159" width="91.6489" height="93.8862" filterUnits="userSpaceOnUse" color-interpolation-filters="sRGB">
<feFlood flood-opacity="0" result="BackgroundImageFix"/>
<feBlend mode="normal" in="SourceGraphic" in2="BackgroundImageFix" result="shape"/>
<feColorMatrix in="SourceAlpha" type="matrix" values="0 0 0 0 0 0 0 0 0 0 0 0 0 0 0 0 0 0 127 0" result="hardAlpha"/>
<feOffset dy="4"/>
<feGaussianBlur stdDeviation="2"/>
<feComposite in2="hardAlpha" operator="arithmetic" k2="-1" k3="1"/>
<feColorMatrix type="matrix" values="0 0 0 0 0 0 0 0 0 0 0 0 0 0 0 0 0 0 0.25 0"/>
<feBlend mode="normal" in2="shape" result="effect1_innerShadow_340_2"/>
</filter>
<filter id="filter12_i_340_2" x="822.502" y="531.81" width="83.4393" height="88.4639" filterUnits="userSpaceOnUse" color-interpolation-filters="sRGB">
<feFlood flood-opacity="0" result="BackgroundImageFix"/>
<feBlend mode="normal" in="SourceGraphic" in2="BackgroundImageFix" result="shape"/>
<feColorMatrix in="SourceAlpha" type="matrix" values="0 0 0 0 0 0 0 0 0 0 0 0 0 0 0 0 0 0 127 0" result="hardAlpha"/>
<feOffset dy="4"/>
<feGaussianBlur stdDeviation="2"/>
<feComposite in2="hardAlpha" operator="arithmetic" k2="-1" k3="1"/>
<feColorMatrix type="matrix" values="0 0 0 0 0 0 0 0 0 0 0 0 0 0 0 0 0 0 0.25 0"/>
<feBlend mode="normal" in2="shape" result="effect1_innerShadow_340_2"/>
</filter>
<filter id="filter13_d_340_2" x="1272.72" y="139.96" width="77.8354" height="77.3638" filterUnits="userSpaceOnUse" color-interpolation-filters="sRGB">
<feFlood flood-opacity="0" result="BackgroundImageFix"/>
<feColorMatrix in="SourceAlpha" type="matrix" values="0 0 0 0 0 0 0 0 0 0 0 0 0 0 0 0 0 0 127 0" result="hardAlpha"/>
<feOffset dy="4"/>
<feGaussianBlur stdDeviation="2"/>
<feComposite in2="hardAlpha" operator="out"/>
<feColorMatrix type="matrix" values="0 0 0 0 0 0 0 0 0 0 0 0 0 0 0 0 0 0 0.25 0"/>
<feBlend mode="normal" in2="BackgroundImageFix" result="effect1_dropShadow_340_2"/>
<feBlend mode="normal" in="SourceGraphic" in2="effect1_dropShadow_340_2" result="shape"/>
</filter>
<filter id="filter14_d_340_2" x="265.331" y="22.646" width="154.587" height="229.205" filterUnits="userSpaceOnUse" color-interpolation-filters="sRGB">
<feFlood flood-opacity="0" result="BackgroundImageFix"/>
<feColorMatrix in="SourceAlpha" type="matrix" values="0 0 0 0 0 0 0 0 0 0 0 0 0 0 0 0 0 0 127 0" result="hardAlpha"/>
<feOffset dy="4"/>
<feGaussianBlur stdDeviation="2"/>
<feComposite in2="hardAlpha" operator="out"/>
<feColorMatrix type="matrix" values="0 0 0 0 0 0 0 0 0 0 0 0 0 0 0 0 0 0 0.25 0"/>
<feBlend mode="normal" in2="BackgroundImageFix" result="effect1_dropShadow_340_2"/>
<feBlend mode="normal" in="SourceGraphic" in2="effect1_dropShadow_340_2" result="shape"/>
</filter>
<filter id="filter15_d_340_2" x="905.756" y="218.754" width="38.9059" height="39.0078" filterUnits="userSpaceOnUse" color-interpolation-filters="sRGB">
<feFlood flood-opacity="0" result="BackgroundImageFix"/>
<feColorMatrix in="SourceAlpha" type="matrix" values="0 0 0 0 0 0 0 0 0 0 0 0 0 0 0 0 0 0 127 0" result="hardAlpha"/>
<feOffset dy="4"/>
<feGaussianBlur stdDeviation="2"/>
<feComposite in2="hardAlpha" operator="out"/>
<feColorMatrix type="matrix" values="0 0 0 0 0 0 0 0 0 0 0 0 0 0 0 0 0 0 0.25 0"/>
<feBlend mode="normal" in2="BackgroundImageFix" result="effect1_dropShadow_340_2"/>
<feBlend mode="normal" in="SourceGraphic" in2="effect1_dropShadow_340_2" result="shape"/>
</filter>
<filter id="filter16_d_340_2" x="639.145" y="162.883" width="82.9923" height="83.6738" filterUnits="userSpaceOnUse" color-interpolation-filters="sRGB">
<feFlood flood-opacity="0" result="BackgroundImageFix"/>
<feColorMatrix in="SourceAlpha" type="matrix" values="0 0 0 0 0 0 0 0 0 0 0 0 0 0 0 0 0 0 127 0" result="hardAlpha"/>
<feOffset dy="4"/>
<feGaussianBlur stdDeviation="2"/>
<feComposite in2="hardAlpha" operator="out"/>
<feColorMatrix type="matrix" values="0 0 0 0 0 0 0 0 0 0 0 0 0 0 0 0 0 0 0.25 0"/>
<feBlend mode="normal" in2="BackgroundImageFix" result="effect1_dropShadow_340_2"/>
<feBlend mode="normal" in="SourceGraphic" in2="effect1_dropShadow_340_2" result="shape"/>
</filter>
<filter id="filter17_d_340_2" x="1150.55" y="295.377" width="67.3901" height="91.8066" filterUnits="userSpaceOnUse" color-interpolation-filters="sRGB">
<feFlood flood-opacity="0" result="BackgroundImageFix"/>
<feColorMatrix in="SourceAlpha" type="matrix" values="0 0 0 0 0 0 0 0 0 0 0 0 0 0 0 0 0 0 127 0" result="hardAlpha"/>
<feOffset dy="4"/>
<feGaussianBlur stdDeviation="2"/>
<feComposite in2="hardAlpha" operator="out"/>
<feColorMatrix type="matrix" values="0 0 0 0 0 0 0 0 0 0 0 0 0 0 0 0 0 0 0.25 0"/>
<feBlend mode="normal" in2="BackgroundImageFix" result="effect1_dropShadow_340_2"/>
<feBlend mode="normal" in="SourceGraphic" in2="effect1_dropShadow_340_2" result="shape"/>
</filter>
<filter id="filter18_i_340_2" x="0.939941" y="413.161" width="1518.63" height="430.612" filterUnits="userSpaceOnUse" color-interpolation-filters="sRGB">
<feFlood flood-opacity="0" result="BackgroundImageFix"/>
<feBlend mode="normal" in="SourceGraphic" in2="BackgroundImageFix" result="shape"/>
<feColorMatrix in="SourceAlpha" type="matrix" values="0 0 0 0 0 0 0 0 0 0 0 0 0 0 0 0 0 0 127 0" result="hardAlpha"/>
<feOffset dy="4"/>
<feGaussianBlur stdDeviation="2"/>
<feComposite in2="hardAlpha" operator="arithmetic" k2="-1" k3="1"/>
<feColorMatrix type="matrix" values="0 0 0 0 0 0 0 0 0 0 0 0 0 0 0 0 0 0 0.25 0"/>
<feBlend mode="normal" in2="shape" result="effect1_innerShadow_340_2"/>
</filter>
<filter id="filter19_i_340_2" x="1015.24" y="300.942" width="499.762" height="544.945" filterUnits="userSpaceOnUse" color-interpolation-filters="sRGB">
<feFlood flood-opacity="0" result="BackgroundImageFix"/>
<feBlend mode="normal" in="SourceGraphic" in2="BackgroundImageFix" result="shape"/>
<feColorMatrix in="SourceAlpha" type="matrix" values="0 0 0 0 0 0 0 0 0 0 0 0 0 0 0 0 0 0 127 0" result="hardAlpha"/>
<feOffset dy="4"/>
<feGaussianBlur stdDeviation="2"/>
<feComposite in2="hardAlpha" operator="arithmetic" k2="-1" k3="1"/>
<feColorMatrix type="matrix" values="0 0 0 0 0 0 0 0 0 0 0 0 0 0 0 0 0 0 0.25 0"/>
<feBlend mode="normal" in2="shape" result="effect1_innerShadow_340_2"/>
</filter>
</defs>
</svg>
