<svg width="1520" height="874" viewBox="0 0 1520 874" fill="none" xmlns="http://www.w3.org/2000/svg">
<g filter="url(#filter0_d_426_145)">
<ellipse cx="245.814" cy="209.5" rx="15.4489" ry="15.5" fill="#EAF2CE"/>
</g>
<g filter="url(#filter1_d_426_145)">
<ellipse cx="1327.12" cy="81.5" rx="15.4489" ry="15.5" fill="#EAF2CE"/>
</g>
<path d="M1178.6 216.5C1178.6 229.217 1168.33 239.5 1155.69 239.5C1143.05 239.5 1132.78 229.217 1132.78 216.5C1132.78 203.783 1143.05 193.5 1155.69 193.5C1168.33 193.5 1178.6 203.783 1178.6 216.5Z" stroke="#B6D96A" stroke-width="9"/>
<g filter="url(#filter2_i_426_145)">
<path d="M203.315 389.778L204.9 327.974L240.216 328.885C246.486 329.047 251.278 330.675 254.591 333.77C257.905 336.864 259.492 341.163 259.351 346.665C259.27 349.8 258.626 352.44 257.419 354.586C256.275 356.733 254.76 358.422 252.872 359.654C255.403 360.808 257.38 362.363 258.802 364.321C260.226 366.214 260.89 369.016 260.795 372.727C260.646 378.549 258.674 383.044 254.88 386.211C251.085 389.378 245.861 390.876 239.207 390.704L203.315 389.778ZM223.857 352.663L234.03 352.926C237.741 353.022 239.639 351.406 239.724 348.079C239.765 346.48 239.316 345.252 238.378 344.395C237.505 343.476 236.045 342.99 233.998 342.938L224.113 342.683L223.857 352.663ZM223.254 376.176L233.811 376.448C237.714 376.549 239.711 374.808 239.803 371.225C239.888 367.898 237.915 366.182 233.885 366.078L223.52 365.811L223.254 376.176Z" fill="#707365"/>
</g>
<g filter="url(#filter3_i_426_145)">
<path d="M278.046 391.764L285.266 330.363L333.028 336.016L331.246 351.176L303.98 347.949L303.061 355.767L326.799 358.576L324.972 374.117L301.234 371.308L300.326 379.031L327.591 382.258L325.809 397.417L278.046 391.764Z" fill="#707365"/>
</g>
<g filter="url(#filter4_i_426_145)">
<path d="M374.461 408.916C363.442 406.286 355.658 401.665 351.109 395.052C346.56 388.44 345.474 380.12 347.851 370.094C350.258 359.943 355.115 352.911 362.423 348.997C369.732 345.082 379.113 344.492 390.567 347.226C394.427 348.147 397.799 349.182 400.684 350.331C403.631 351.495 406.394 352.878 408.974 354.481L404.921 371.575C402.308 369.833 399.583 368.426 396.746 367.354C393.924 366.22 390.987 365.289 387.937 364.561C382.832 363.342 378.59 363.481 375.209 364.977C371.829 366.474 369.526 369.806 368.301 374.975C367.12 379.957 367.398 383.774 369.138 386.426C370.954 389.031 374.04 390.853 378.398 391.893C381.075 392.532 383.514 392.785 385.716 392.653L387.178 386.487L376.253 383.88L379.154 371.643L406.794 378.24L399.529 408.879C396.733 409.856 393.24 410.437 389.053 410.622C384.865 410.807 380.001 410.238 374.461 408.916Z" fill="#707365"/>
</g>
<g filter="url(#filter5_i_426_145)">
<path d="M421.483 418.472L439.09 359.208L458.865 365.122L441.258 424.386L421.483 418.472Z" fill="#707365"/>
</g>
<g filter="url(#filter6_i_426_145)">
<path d="M464.167 433.473L482.305 374.369L498.907 379.498L509.988 412.762L518.352 385.504L538.073 391.596L519.935 450.7L503.15 445.515L492.224 412.399L483.888 439.565L464.167 433.473Z" fill="#707365"/>
</g>
<g filter="url(#filter7_i_426_145)">
<path d="M586.934 479.219L589.052 412.985L608.856 421.365L606.21 461.107L632.816 431.502L652.709 439.919L606.826 487.636L586.934 479.219Z" fill="#53A62D"/>
</g>
<g filter="url(#filter8_i_426_145)">
<path d="M638.091 502.874L664.629 447.036L708.015 467.793L701.463 481.579L676.696 469.73L673.317 476.84L694.88 487.156L688.163 501.289L666.6 490.973L663.262 497.996L688.029 509.845L681.477 523.631L638.091 502.874Z" fill="#53A62D"/>
</g>
<g filter="url(#filter9_i_426_145)">
<path d="M722.736 548.01C712.743 542.675 706.38 536.231 703.649 528.678C700.917 521.126 701.965 512.798 706.793 503.695C711.681 494.479 718.153 488.902 726.208 486.963C734.264 485.025 743.485 486.828 753.874 492.375C757.374 494.243 760.374 496.099 762.874 497.942C765.431 499.814 767.754 501.853 769.845 504.058L761.614 519.578C759.526 517.23 757.246 515.178 754.772 513.422C752.329 511.61 749.724 509.965 746.957 508.488C742.328 506.016 738.19 505.077 734.543 505.669C730.897 506.261 727.829 508.904 725.34 513.597C722.941 518.12 722.248 521.885 723.261 524.893C724.36 527.874 726.886 530.419 730.838 532.529C733.265 533.825 735.561 534.688 737.723 535.117L740.692 529.52L730.784 524.23L736.677 513.12L761.744 526.503L746.99 554.321C744.038 554.559 740.514 554.237 736.418 553.356C732.321 552.475 727.76 550.693 722.736 548.01Z" fill="#53A62D"/>
</g>
<g filter="url(#filter10_i_426_145)">
<path d="M754.132 564.702L808 526.312L825.972 538.294L811.642 603.045L793.75 591.116L796.542 578.209L782.723 568.996L772.024 576.631L754.132 564.702ZM792.752 558.375L802.416 564.819L805.814 549.084L792.752 558.375Z" fill="#53A62D"/>
</g>
<g filter="url(#filter11_i_426_145)">
<path d="M822.501 613.856L858.8 563.81L872.834 574.056L872.531 609.137L889.271 586.057L905.941 598.228L869.642 648.274L855.453 637.915L855.855 603.024L839.171 626.027L822.501 613.856Z" fill="#53A62D"/>
</g>

<g filter="url(#filter12_d_426_145)">

</g>
<path opacity="0.7" fill-rule="evenodd" clip-rule="evenodd" d="M1199.64 120.136C1197.38 112.728 1189.57 108.595 1182.23 110.856C1174.89 113.116 1170.74 120.931 1173.01 128.339L1166.32 130.399C1162.92 119.312 1169.13 107.565 1180.18 104.162C1191.23 100.759 1202.94 106.988 1206.33 118.075L1199.64 120.136Z" fill="#DE4C3C"/>
<path opacity="0.7" fill-rule="evenodd" clip-rule="evenodd" d="M508.306 311.418C514.293 306.569 515.235 297.763 510.395 291.746C505.555 285.73 496.776 284.795 490.789 289.644L486.401 284.19C495.396 276.905 508.574 278.316 515.835 287.341C523.095 296.366 521.689 309.587 512.694 316.872L508.306 311.418Z" fill="#DE4C3C"/>
<path opacity="0.7" fill-rule="evenodd" clip-rule="evenodd" d="M105.91 178.916C109.421 185.81 117.824 188.525 124.666 185.017C131.508 181.51 134.24 173.088 130.729 166.193L136.959 163C142.218 173.328 138.136 185.978 127.842 191.255C117.548 196.532 104.94 192.437 99.6806 182.109L105.91 178.916Z" fill="#DE4C3C"/>
<g filter="url(#filter13_d_426_145)">
<ellipse rx="15.4925" ry="15.4564" transform="matrix(0.382355 -0.924016 0.923119 0.384514 925.209 266.258)" fill="#EAF2CE"/>
</g>

<path opacity="0.7" fill-rule="evenodd" clip-rule="evenodd" d="M1059.98 455.127L1066.7 453.149C1063.44 442.021 1051.81 435.648 1040.72 438.916C1029.63 442.183 1023.27 453.853 1026.53 464.981C1026.53 464.981 1026.53 464.981 1026.53 464.981L1033.25 463.003C1033.25 463.003 1033.25 463.003 1033.25 463.003C1031.07 455.568 1035.32 447.804 1042.68 445.634C1050.05 443.464 1057.81 447.692 1059.98 455.127Z" fill="#DE4C3C"/>
<g filter="url(#filter14_d_426_145)">
<path fill-rule="evenodd" clip-rule="evenodd" d="M700.549 218.412L699.48 222.152C699.64 222.192 699.801 222.236 699.961 222.282C708.156 224.64 712.895 233.217 710.545 241.44C708.374 249.036 700.912 253.672 693.326 252.475L691.109 251.837C691.106 251.852 691.102 251.866 691.099 251.88C691.093 251.902 691.087 251.925 691.081 251.948C691.045 251.936 691.009 251.925 690.973 251.913L690.337 254.138C687.329 261.226 679.456 265.117 671.885 262.939C664.767 260.891 660.256 254.151 660.733 247.027L661.802 243.288C661.642 243.247 661.481 243.204 661.321 243.158C653.125 240.8 648.387 232.222 650.737 224C652.908 216.403 660.37 211.767 667.956 212.964L670.173 213.602C670.182 213.565 670.191 213.529 670.201 213.492C670.237 213.503 670.273 213.515 670.309 213.526L670.945 211.302C673.953 204.213 681.826 200.322 689.397 202.5C696.515 204.548 701.026 211.288 700.549 218.412ZM707.563 218.066C707.871 208.019 701.394 198.658 691.324 195.761C681.36 192.894 671.037 197.263 665.933 205.766C656.041 205.603 646.877 212.07 644.019 222.067C641.193 231.956 645.424 242.197 653.719 247.374C653.411 257.42 659.888 266.781 669.958 269.679C679.922 272.546 690.245 268.176 695.349 259.673C705.241 259.837 714.405 253.369 717.262 243.373C720.089 233.484 715.858 223.242 707.563 218.066Z" fill="#53A62D"/>
</g>
<g filter="url(#filter15_d_426_145)">
<path fill-rule="evenodd" clip-rule="evenodd" d="M1193.56 368.129C1193.93 386.389 1186.27 402.29 1174.91 409.689L1174.91 409.682C1163.26 402.764 1154.94 387.196 1154.56 368.937C1154.19 350.677 1161.85 334.776 1173.21 327.377L1173.21 327.384C1184.86 334.302 1193.18 349.87 1193.56 368.129Z" fill="#638724"/>
<path d="M1173.13 341C1176.11 364.992 1176.11 377.141 1171.76 395.411" stroke="#707365"/>
<path fill-rule="evenodd" clip-rule="evenodd" d="M1202.02 399.024C1192.43 408.721 1179.92 412.852 1170.05 410.569L1213.29 366.862C1215.64 376.748 1211.61 389.328 1202.02 399.024ZM1181.32 378.403C1190.91 368.707 1203.42 364.576 1213.29 366.858L1170.06 410.565C1167.71 400.68 1171.73 388.1 1181.32 378.403Z" fill="#B6D96A"/>
<path d="M1172.13 409C1183.29 393.851 1189.79 386.988 1202.03 379" stroke="#707365"/>
</g>
<g filter="url(#filter16_i_426_145)">
<path d="M3 472C221.777 409.5 691.127 488.096 1012.16 861.5L1515 475" stroke="#EAF2CE" stroke-width="15"/>
</g>
<g filter="url(#filter17_i_426_145)">
<path fill-rule="evenodd" clip-rule="evenodd" d="M1515 332.942C1478.76 347.093 1441.84 363.937 1404.99 384.509C1261.01 464.887 1117.85 602.023 1015.37 857.029L1015.31 857.037L1015.32 857.137L1015.24 857.348L1015.36 857.396L1017.56 873.887C1247.03 843.269 1403.18 764.258 1515 668.761V646.223C1408.1 741.089 1257.99 821.203 1034.83 854.289C1135.61 608.649 1274.46 476.843 1413.28 399.353C1447.36 380.324 1481.44 364.561 1515 351.193V332.942Z" fill="#B6D96A"/>
</g>
<circle cx="269.618" cy="760.5" r="15.5" fill="#EAF2CE"/>
<circle cx="607.501" cy="715.5" r="15.5" fill="#EAF2CE"/>

<path opacity="0.7" fill-rule="evenodd" clip-rule="evenodd" d="M532.984 862.425L537.38 867.872C546.405 860.587 547.816 847.366 540.532 838.341C533.247 829.316 520.026 827.905 511.001 835.19L515.397 840.637C521.414 835.78 530.228 836.721 535.085 842.738C539.941 848.754 539 857.569 532.984 862.425Z" fill="#DE4C3C"/>
<path opacity="0.7" fill-rule="evenodd" clip-rule="evenodd" d="M129.234 729.924L123 733.109C128.277 743.437 140.927 747.532 151.255 742.255C161.583 736.978 165.678 724.328 160.402 714L154.168 717.185C157.686 724.07 154.956 732.504 148.071 736.022C141.185 739.539 132.752 736.809 129.234 729.924Z" fill="#DE4C3C"/>
<circle cx="513.501" cy="658.5" r="23" stroke="#B6D96A" stroke-width="9"/>
<g filter="url(#filter18_d_426_145)">
<path fill-rule="evenodd" clip-rule="evenodd" d="M722.97 813.558L721.886 817.339C722.047 817.38 722.208 817.423 722.369 817.469C730.598 819.829 735.356 828.413 732.996 836.641C730.824 844.213 723.383 848.846 715.798 847.699L713.496 847.039C713.486 847.079 713.476 847.12 713.465 847.161C713.425 847.148 713.385 847.135 713.345 847.123L712.685 849.424C709.638 856.465 701.766 860.32 694.194 858.148C687.064 856.104 682.54 849.387 682.994 842.277L684.078 838.497C683.917 838.456 683.756 838.413 683.595 838.367C675.366 836.007 670.608 827.423 672.968 819.195C675.14 811.623 682.581 806.99 690.166 808.137L692.468 808.797C692.478 808.757 692.489 808.716 692.499 808.675C692.539 808.688 692.579 808.701 692.619 808.713L693.279 806.412C696.326 799.371 704.198 795.516 711.77 797.688C718.9 799.732 723.424 806.449 722.97 813.558ZM729.993 813.264C730.302 803.218 723.804 793.856 713.7 790.959C703.703 788.092 693.346 792.462 688.225 800.965C678.301 800.801 669.106 807.269 666.239 817.265C663.404 827.154 667.649 837.395 675.971 842.572C675.662 852.618 682.16 861.98 692.264 864.877C702.261 867.744 712.618 863.374 717.739 854.871C727.663 855.035 736.858 848.567 739.725 838.571C742.56 828.682 738.315 818.441 729.993 813.264Z" fill="#53A62D"/>
</g>
<defs>
<filter id="filter0_d_426_145" x="226.365" y="194" width="38.8975" height="39" filterUnits="userSpaceOnUse" color-interpolation-filters="sRGB">
<feFlood flood-opacity="0" result="BackgroundImageFix"/>
<feColorMatrix in="SourceAlpha" type="matrix" values="0 0 0 0 0 0 0 0 0 0 0 0 0 0 0 0 0 0 127 0" result="hardAlpha"/>
<feOffset dy="4"/>
<feGaussianBlur stdDeviation="2"/>
<feComposite in2="hardAlpha" operator="out"/>
<feColorMatrix type="matrix" values="0 0 0 0 0 0 0 0 0 0 0 0 0 0 0 0 0 0 0.25 0"/>
<feBlend mode="normal" in2="BackgroundImageFix" result="effect1_dropShadow_426_145"/>
<feBlend mode="normal" in="SourceGraphic" in2="effect1_dropShadow_426_145" result="shape"/>
</filter>
<filter id="filter1_d_426_145" x="1307.67" y="66" width="38.8975" height="39" filterUnits="userSpaceOnUse" color-interpolation-filters="sRGB">
<feFlood flood-opacity="0" result="BackgroundImageFix"/>
<feColorMatrix in="SourceAlpha" type="matrix" values="0 0 0 0 0 0 0 0 0 0 0 0 0 0 0 0 0 0 127 0" result="hardAlpha"/>
<feOffset dy="4"/>
<feGaussianBlur stdDeviation="2"/>
<feComposite in2="hardAlpha" operator="out"/>
<feColorMatrix type="matrix" values="0 0 0 0 0 0 0 0 0 0 0 0 0 0 0 0 0 0 0.25 0"/>
<feBlend mode="normal" in2="BackgroundImageFix" result="effect1_dropShadow_426_145"/>
<feBlend mode="normal" in="SourceGraphic" in2="effect1_dropShadow_426_145" result="shape"/>
</filter>
<filter id="filter2_i_426_145" x="203.315" y="327.974" width="58.5889" height="67.2744" filterUnits="userSpaceOnUse" color-interpolation-filters="sRGB">
<feFlood flood-opacity="0" result="BackgroundImageFix"/>
<feBlend mode="normal" in="SourceGraphic" in2="BackgroundImageFix" result="shape"/>
<feColorMatrix in="SourceAlpha" type="matrix" values="0 0 0 0 0 0 0 0 0 0 0 0 0 0 0 0 0 0 127 0" result="hardAlpha"/>
<feOffset dy="4"/>
<feGaussianBlur stdDeviation="2"/>
<feComposite in2="hardAlpha" operator="arithmetic" k2="-1" k3="1"/>
<feColorMatrix type="matrix" values="0 0 0 0 0 0 0 0 0 0 0 0 0 0 0 0 0 0 0.25 0"/>
<feBlend mode="normal" in2="shape" result="effect1_innerShadow_426_145"/>
</filter>
<filter id="filter3_i_426_145" x="278.046" y="330.363" width="54.9824" height="71.0537" filterUnits="userSpaceOnUse" color-interpolation-filters="sRGB">
<feFlood flood-opacity="0" result="BackgroundImageFix"/>
<feBlend mode="normal" in="SourceGraphic" in2="BackgroundImageFix" result="shape"/>
<feColorMatrix in="SourceAlpha" type="matrix" values="0 0 0 0 0 0 0 0 0 0 0 0 0 0 0 0 0 0 127 0" result="hardAlpha"/>
<feOffset dy="4"/>
<feGaussianBlur stdDeviation="2"/>
<feComposite in2="hardAlpha" operator="arithmetic" k2="-1" k3="1"/>
<feColorMatrix type="matrix" values="0 0 0 0 0 0 0 0 0 0 0 0 0 0 0 0 0 0 0.25 0"/>
<feBlend mode="normal" in2="shape" result="effect1_innerShadow_426_145"/>
</filter>
<filter id="filter4_i_426_145" x="340.564" y="338.802" width="72.3193" height="79.7749" filterUnits="userSpaceOnUse" color-interpolation-filters="sRGB">
<feFlood flood-opacity="0" result="BackgroundImageFix"/>
<feBlend mode="normal" in="SourceGraphic" in2="BackgroundImageFix" result="shape"/>
<feColorMatrix in="SourceAlpha" type="matrix" values="0 0 0 0 0 0 0 0 0 0 0 0 0 0 0 0 0 0 127 0" result="hardAlpha"/>
<feOffset dy="4"/>
<feGaussianBlur stdDeviation="2"/>
<feComposite in2="hardAlpha" operator="arithmetic" k2="-1" k3="1"/>
<feColorMatrix type="matrix" values="0 0 0 0 0 0 0 0 0 0 0 0 0 0 0 0 0 0 0.25 0"/>
<feBlend mode="normal" in2="shape" result="effect1_innerShadow_426_145"/>
</filter>
<filter id="filter5_i_426_145" x="421.483" y="359.208" width="37.3818" height="69.1777" filterUnits="userSpaceOnUse" color-interpolation-filters="sRGB">
<feFlood flood-opacity="0" result="BackgroundImageFix"/>
<feBlend mode="normal" in="SourceGraphic" in2="BackgroundImageFix" result="shape"/>
<feColorMatrix in="SourceAlpha" type="matrix" values="0 0 0 0 0 0 0 0 0 0 0 0 0 0 0 0 0 0 127 0" result="hardAlpha"/>
<feOffset dy="4"/>
<feGaussianBlur stdDeviation="2"/>
<feComposite in2="hardAlpha" operator="arithmetic" k2="-1" k3="1"/>
<feColorMatrix type="matrix" values="0 0 0 0 0 0 0 0 0 0 0 0 0 0 0 0 0 0 0.25 0"/>
<feBlend mode="normal" in2="shape" result="effect1_innerShadow_426_145"/>
</filter>
<filter id="filter6_i_426_145" x="464.168" y="374.369" width="73.9043" height="80.3306" filterUnits="userSpaceOnUse" color-interpolation-filters="sRGB">
<feFlood flood-opacity="0" result="BackgroundImageFix"/>
<feBlend mode="normal" in="SourceGraphic" in2="BackgroundImageFix" result="shape"/>
<feColorMatrix in="SourceAlpha" type="matrix" values="0 0 0 0 0 0 0 0 0 0 0 0 0 0 0 0 0 0 127 0" result="hardAlpha"/>
<feOffset dy="4"/>
<feGaussianBlur stdDeviation="2"/>
<feComposite in2="hardAlpha" operator="arithmetic" k2="-1" k3="1"/>
<feColorMatrix type="matrix" values="0 0 0 0 0 0 0 0 0 0 0 0 0 0 0 0 0 0 0.25 0"/>
<feBlend mode="normal" in2="shape" result="effect1_innerShadow_426_145"/>
</filter>
<filter id="filter7_i_426_145" x="565.096" y="412.985" width="87.6133" height="87.9277" filterUnits="userSpaceOnUse" color-interpolation-filters="sRGB">
<feFlood flood-opacity="0" result="BackgroundImageFix"/>
<feBlend mode="normal" in="SourceGraphic" in2="BackgroundImageFix" result="shape"/>
<feColorMatrix in="SourceAlpha" type="matrix" values="0 0 0 0 0 0 0 0 0 0 0 0 0 0 0 0 0 0 127 0" result="hardAlpha"/>
<feOffset dy="4"/>
<feGaussianBlur stdDeviation="2"/>
<feComposite in2="hardAlpha" operator="arithmetic" k2="-1" k3="1"/>
<feColorMatrix type="matrix" values="0 0 0 0 0 0 0 0 0 0 0 0 0 0 0 0 0 0 0.25 0"/>
<feBlend mode="normal" in2="shape" result="effect1_innerShadow_426_145"/>
</filter>
<filter id="filter8_i_426_145" x="638.091" y="447.036" width="69.9248" height="80.5952" filterUnits="userSpaceOnUse" color-interpolation-filters="sRGB">
<feFlood flood-opacity="0" result="BackgroundImageFix"/>
<feBlend mode="normal" in="SourceGraphic" in2="BackgroundImageFix" result="shape"/>
<feColorMatrix in="SourceAlpha" type="matrix" values="0 0 0 0 0 0 0 0 0 0 0 0 0 0 0 0 0 0 127 0" result="hardAlpha"/>
<feOffset dy="4"/>
<feGaussianBlur stdDeviation="2"/>
<feComposite in2="hardAlpha" operator="arithmetic" k2="-1" k3="1"/>
<feColorMatrix type="matrix" values="0 0 0 0 0 0 0 0 0 0 0 0 0 0 0 0 0 0 0.25 0"/>
<feBlend mode="normal" in2="shape" result="effect1_innerShadow_426_145"/>
</filter>
<filter id="filter9_i_426_145" x="691.994" y="475.284" width="82.1191" height="88.2104" filterUnits="userSpaceOnUse" color-interpolation-filters="sRGB">
<feFlood flood-opacity="0" result="BackgroundImageFix"/>
<feBlend mode="normal" in="SourceGraphic" in2="BackgroundImageFix" result="shape"/>
<feColorMatrix in="SourceAlpha" type="matrix" values="0 0 0 0 0 0 0 0 0 0 0 0 0 0 0 0 0 0 127 0" result="hardAlpha"/>
<feOffset dy="4"/>
<feGaussianBlur stdDeviation="2"/>
<feComposite in2="hardAlpha" operator="arithmetic" k2="-1" k3="1"/>
<feColorMatrix type="matrix" values="0 0 0 0 0 0 0 0 0 0 0 0 0 0 0 0 0 0 0.25 0"/>
<feBlend mode="normal" in2="shape" result="effect1_innerShadow_426_145"/>
</filter>
<filter id="filter10_i_426_145" x="754.132" y="513.159" width="91.6494" height="93.8862" filterUnits="userSpaceOnUse" color-interpolation-filters="sRGB">
<feFlood flood-opacity="0" result="BackgroundImageFix"/>
<feBlend mode="normal" in="SourceGraphic" in2="BackgroundImageFix" result="shape"/>
<feColorMatrix in="SourceAlpha" type="matrix" values="0 0 0 0 0 0 0 0 0 0 0 0 0 0 0 0 0 0 127 0" result="hardAlpha"/>
<feOffset dy="4"/>
<feGaussianBlur stdDeviation="2"/>
<feComposite in2="hardAlpha" operator="arithmetic" k2="-1" k3="1"/>
<feColorMatrix type="matrix" values="0 0 0 0 0 0 0 0 0 0 0 0 0 0 0 0 0 0 0.25 0"/>
<feBlend mode="normal" in2="shape" result="effect1_innerShadow_426_145"/>
</filter>
<filter id="filter11_i_426_145" x="822.501" y="563.81" width="83.4395" height="88.4639" filterUnits="userSpaceOnUse" color-interpolation-filters="sRGB">
<feFlood flood-opacity="0" result="BackgroundImageFix"/>
<feBlend mode="normal" in="SourceGraphic" in2="BackgroundImageFix" result="shape"/>
<feColorMatrix in="SourceAlpha" type="matrix" values="0 0 0 0 0 0 0 0 0 0 0 0 0 0 0 0 0 0 127 0" result="hardAlpha"/>
<feOffset dy="4"/>
<feGaussianBlur stdDeviation="2"/>
<feComposite in2="hardAlpha" operator="arithmetic" k2="-1" k3="1"/>
<feColorMatrix type="matrix" values="0 0 0 0 0 0 0 0 0 0 0 0 0 0 0 0 0 0 0.25 0"/>
<feBlend mode="normal" in2="shape" result="effect1_innerShadow_426_145"/>
</filter>
<filter id="filter12_d_426_145" x="1272.72" y="171.96" width="77.835" height="77.3638" filterUnits="userSpaceOnUse" color-interpolation-filters="sRGB">
<feFlood flood-opacity="0" result="BackgroundImageFix"/>
<feColorMatrix in="SourceAlpha" type="matrix" values="0 0 0 0 0 0 0 0 0 0 0 0 0 0 0 0 0 0 127 0" result="hardAlpha"/>
<feOffset dy="4"/>
<feGaussianBlur stdDeviation="2"/>
<feComposite in2="hardAlpha" operator="out"/>
<feColorMatrix type="matrix" values="0 0 0 0 0 0 0 0 0 0 0 0 0 0 0 0 0 0 0.25 0"/>
<feBlend mode="normal" in2="BackgroundImageFix" result="effect1_dropShadow_426_145"/>
<feBlend mode="normal" in="SourceGraphic" in2="effect1_dropShadow_426_145" result="shape"/>
</filter>
<filter id="filter13_d_426_145" x="905.757" y="250.754" width="38.9053" height="39.0078" filterUnits="userSpaceOnUse" color-interpolation-filters="sRGB">
<feFlood flood-opacity="0" result="BackgroundImageFix"/>
<feColorMatrix in="SourceAlpha" type="matrix" values="0 0 0 0 0 0 0 0 0 0 0 0 0 0 0 0 0 0 127 0" result="hardAlpha"/>
<feOffset dy="4"/>
<feGaussianBlur stdDeviation="2"/>
<feComposite in2="hardAlpha" operator="out"/>
<feColorMatrix type="matrix" values="0 0 0 0 0 0 0 0 0 0 0 0 0 0 0 0 0 0 0.25 0"/>
<feBlend mode="normal" in2="BackgroundImageFix" result="effect1_dropShadow_426_145"/>
<feBlend mode="normal" in="SourceGraphic" in2="effect1_dropShadow_426_145" result="shape"/>
</filter>
<filter id="filter14_d_426_145" x="639.145" y="194.883" width="82.9922" height="83.6738" filterUnits="userSpaceOnUse" color-interpolation-filters="sRGB">
<feFlood flood-opacity="0" result="BackgroundImageFix"/>
<feColorMatrix in="SourceAlpha" type="matrix" values="0 0 0 0 0 0 0 0 0 0 0 0 0 0 0 0 0 0 127 0" result="hardAlpha"/>
<feOffset dy="4"/>
<feGaussianBlur stdDeviation="2"/>
<feComposite in2="hardAlpha" operator="out"/>
<feColorMatrix type="matrix" values="0 0 0 0 0 0 0 0 0 0 0 0 0 0 0 0 0 0 0.25 0"/>
<feBlend mode="normal" in2="BackgroundImageFix" result="effect1_dropShadow_426_145"/>
<feBlend mode="normal" in="SourceGraphic" in2="effect1_dropShadow_426_145" result="shape"/>
</filter>
<filter id="filter15_d_426_145" x="1150.55" y="327.377" width="67.3906" height="91.8066" filterUnits="userSpaceOnUse" color-interpolation-filters="sRGB">
<feFlood flood-opacity="0" result="BackgroundImageFix"/>
<feColorMatrix in="SourceAlpha" type="matrix" values="0 0 0 0 0 0 0 0 0 0 0 0 0 0 0 0 0 0 127 0" result="hardAlpha"/>
<feOffset dy="4"/>
<feGaussianBlur stdDeviation="2"/>
<feComposite in2="hardAlpha" operator="out"/>
<feColorMatrix type="matrix" values="0 0 0 0 0 0 0 0 0 0 0 0 0 0 0 0 0 0 0.25 0"/>
<feBlend mode="normal" in2="BackgroundImageFix" result="effect1_dropShadow_426_145"/>
<feBlend mode="normal" in="SourceGraphic" in2="effect1_dropShadow_426_145" result="shape"/>
</filter>
<filter id="filter16_i_426_145" x="0.939453" y="445.161" width="1518.63" height="430.612" filterUnits="userSpaceOnUse" color-interpolation-filters="sRGB">
<feFlood flood-opacity="0" result="BackgroundImageFix"/>
<feBlend mode="normal" in="SourceGraphic" in2="BackgroundImageFix" result="shape"/>
<feColorMatrix in="SourceAlpha" type="matrix" values="0 0 0 0 0 0 0 0 0 0 0 0 0 0 0 0 0 0 127 0" result="hardAlpha"/>
<feOffset dy="4"/>
<feGaussianBlur stdDeviation="2"/>
<feComposite in2="hardAlpha" operator="arithmetic" k2="-1" k3="1"/>
<feColorMatrix type="matrix" values="0 0 0 0 0 0 0 0 0 0 0 0 0 0 0 0 0 0 0.25 0"/>
<feBlend mode="normal" in2="shape" result="effect1_innerShadow_426_145"/>
</filter>
<filter id="filter17_i_426_145" x="1015.24" y="332.942" width="499.762" height="544.945" filterUnits="userSpaceOnUse" color-interpolation-filters="sRGB">
<feFlood flood-opacity="0" result="BackgroundImageFix"/>
<feBlend mode="normal" in="SourceGraphic" in2="BackgroundImageFix" result="shape"/>
<feColorMatrix in="SourceAlpha" type="matrix" values="0 0 0 0 0 0 0 0 0 0 0 0 0 0 0 0 0 0 127 0" result="hardAlpha"/>
<feOffset dy="4"/>
<feGaussianBlur stdDeviation="2"/>
<feComposite in2="hardAlpha" operator="arithmetic" k2="-1" k3="1"/>
<feColorMatrix type="matrix" values="0 0 0 0 0 0 0 0 0 0 0 0 0 0 0 0 0 0 0.25 0"/>
<feBlend mode="normal" in2="shape" result="effect1_innerShadow_426_145"/>
</filter>
<filter id="filter18_d_426_145" x="661.362" y="790.081" width="83.2402" height="83.6738" filterUnits="userSpaceOnUse" color-interpolation-filters="sRGB">
<feFlood flood-opacity="0" result="BackgroundImageFix"/>
<feColorMatrix in="SourceAlpha" type="matrix" values="0 0 0 0 0 0 0 0 0 0 0 0 0 0 0 0 0 0 127 0" result="hardAlpha"/>
<feOffset dy="4"/>
<feGaussianBlur stdDeviation="2"/>
<feComposite in2="hardAlpha" operator="out"/>
<feColorMatrix type="matrix" values="0 0 0 0 0 0 0 0 0 0 0 0 0 0 0 0 0 0 0.25 0"/>
<feBlend mode="normal" in2="BackgroundImageFix" result="effect1_dropShadow_426_145"/>
<feBlend mode="normal" in="SourceGraphic" in2="effect1_dropShadow_426_145" result="shape"/>
</filter>
</defs>
</svg>
