<svg width="260" height="226" viewBox="0 0 260 226" fill="none" xmlns="http://www.w3.org/2000/svg">
<g filter="url(#filter0_d_97_1567)">
<path d="M4.99996 85.4603C57.7825 103.608 81.0679 240.528 254.197 138.436C236.67 97.2976 213.983 51.0204 142.714 70.438C71.4458 89.8556 4.99996 85.4603 4.99996 85.4603Z" fill="#EAF2CE"/>
<path d="M4.99996 85.4603C57.7825 103.608 81.0679 240.528 254.197 138.436C236.67 97.2976 213.983 51.0204 142.714 70.438C71.4458 89.8556 4.99996 85.4603 4.99996 85.4603Z" stroke="#EAF2CE" stroke-width="2"/>
</g>
<path d="M124.666 122.08V125.104H133.378V127.648H112.93V125.104H121.642V122.08H115.666V114.64H127.498V112.264H115.594V109.72H130.522V117.16H118.69V119.536H131.026V122.08H124.666ZM155.222 125.08V127.648H134.774V125.08H155.222ZM148.454 123.064C148.598 122.296 148.718 121.56 148.814 120.856C148.926 120.136 149.006 119.44 149.054 118.768C149.118 118.096 149.158 117.432 149.174 116.776C149.206 116.104 149.222 115.424 149.222 114.736V112.792H137.222V110.128H152.246V113.944C152.246 115.08 152.23 116.08 152.198 116.944C152.166 117.792 152.118 118.576 152.054 119.296C151.99 120.016 151.902 120.704 151.79 121.36C151.694 122.016 151.582 122.704 151.454 123.424L148.454 123.064ZM164.01 127.624H175.53V130.216H160.962V122.728H164.01V127.624ZM175.17 124.024H172.146V108.136H175.17V124.024ZM163.074 120.616C162.178 120.616 161.37 120.48 160.65 120.208C159.946 119.92 159.346 119.536 158.85 119.056C158.354 118.576 157.97 118.024 157.698 117.4C157.442 116.776 157.314 116.128 157.314 115.456V114.112C157.314 113.44 157.442 112.792 157.698 112.168C157.97 111.544 158.354 110.992 158.85 110.512C159.346 110.032 159.946 109.656 160.65 109.384C161.37 109.096 162.178 108.952 163.074 108.952C163.97 108.952 164.77 109.096 165.474 109.384C166.194 109.656 166.802 110.032 167.298 110.512C167.794 110.992 168.17 111.544 168.426 112.168C168.698 112.792 168.834 113.44 168.834 114.112V115.456C168.834 116.128 168.698 116.776 168.426 117.4C168.17 118.024 167.794 118.576 167.298 119.056C166.802 119.536 166.194 119.92 165.474 120.208C164.77 120.48 163.97 120.616 163.074 120.616ZM163.074 111.568C162.626 111.568 162.218 111.648 161.85 111.808C161.498 111.952 161.194 112.152 160.938 112.408C160.698 112.664 160.506 112.96 160.362 113.296C160.234 113.632 160.17 113.976 160.17 114.328V115.24C160.17 115.608 160.234 115.96 160.362 116.296C160.506 116.616 160.698 116.904 160.938 117.16C161.194 117.416 161.498 117.624 161.85 117.784C162.218 117.928 162.626 118 163.074 118C163.522 118 163.922 117.928 164.274 117.784C164.642 117.624 164.946 117.416 165.186 117.16C165.442 116.904 165.634 116.616 165.762 116.296C165.906 115.96 165.978 115.608 165.978 115.24V114.328C165.978 113.976 165.906 113.632 165.762 113.296C165.634 112.96 165.442 112.664 165.186 112.408C164.946 112.152 164.642 111.952 164.274 111.808C163.922 111.648 163.522 111.568 163.074 111.568Z" fill="#707365"/>
<defs>
<filter id="filter0_d_97_1567" x="0.674805" y="64.8727" width="258.786" height="120.032" filterUnits="userSpaceOnUse" color-interpolation-filters="sRGB">
<feFlood flood-opacity="0" result="BackgroundImageFix"/>
<feColorMatrix in="SourceAlpha" type="matrix" values="0 0 0 0 0 0 0 0 0 0 0 0 0 0 0 0 0 0 127 0" result="hardAlpha"/>
<feOffset dy="4"/>
<feGaussianBlur stdDeviation="2"/>
<feComposite in2="hardAlpha" operator="out"/>
<feColorMatrix type="matrix" values="0 0 0 0 0 0 0 0 0 0 0 0 0 0 0 0 0 0 0.25 0"/>
<feBlend mode="normal" in2="BackgroundImageFix" result="effect1_dropShadow_97_1567"/>
<feBlend mode="normal" in="SourceGraphic" in2="effect1_dropShadow_97_1567" result="shape"/>
</filter>
</defs>
</svg>
