<svg width="269" height="122" viewBox="0 0 269 122" fill="none" xmlns="http://www.w3.org/2000/svg">
<g clip-path="url(#clip0_144_2)">
<g filter="url(#filter0_i_144_2)">
<path d="M-8.91352e-06 22.8177C56.709 42.3152 81.7266 189.421 267.734 79.7344C248.903 35.5356 224.529 -14.1841 147.959 6.67792C71.3887 27.54 -8.91352e-06 22.8177 -8.91352e-06 22.8177Z" fill="#EAF2CE"/>
</g>
<path d="M98.9867 59V33.24H113.707C116.32 33.24 118.333 33.8667 119.747 35.12C121.16 36.3733 121.867 38.1467 121.867 40.44C121.867 41.7467 121.627 42.8533 121.147 43.76C120.693 44.6667 120.08 45.3867 119.307 45.92C120.373 46.3733 121.213 47 121.827 47.8C122.44 48.5733 122.747 49.7333 122.747 51.28C122.747 53.7067 121.973 55.6 120.427 56.96C118.88 58.32 116.72 59 113.947 59H98.9867ZM107.147 43.32H111.387C112.933 43.32 113.707 42.6267 113.707 41.24C113.707 40.5733 113.507 40.0667 113.107 39.72C112.733 39.3467 112.12 39.16 111.267 39.16H107.147V43.32ZM107.147 53.12H111.547C113.173 53.12 113.987 52.3733 113.987 50.88C113.987 49.4933 113.147 48.8 111.467 48.8H107.147V53.12ZM125.159 59V33.24H145.199V39.6H133.759V42.88H143.719V49.4H133.759V52.64H145.199V59H125.159ZM161.105 59.4C156.385 59.4 152.785 58.28 150.305 56.04C147.825 53.8 146.585 50.5333 146.585 46.24C146.585 41.8933 147.878 38.5733 150.465 36.28C153.052 33.9867 156.798 32.84 161.705 32.84C163.358 32.84 164.825 32.9333 166.105 33.12C167.412 33.3067 168.665 33.6 169.865 34V41.32C168.638 40.8667 167.398 40.56 166.145 40.4C164.892 40.2133 163.612 40.12 162.305 40.12C160.118 40.12 158.412 40.5867 157.185 41.52C155.958 42.4533 155.345 44.0267 155.345 46.24C155.345 48.3733 155.825 49.8933 156.785 50.8C157.772 51.68 159.198 52.12 161.065 52.12C162.212 52.12 163.225 51.9867 164.105 51.72V49.08H159.425V43.84H171.265V56.96C170.225 57.6267 168.865 58.2 167.185 58.68C165.505 59.16 163.478 59.4 161.105 59.4ZM173.674 59V33.24H182.274V59H173.674ZM185.471 59V33.24H192.711L201.191 45.12V33.24H209.791V59H202.471L194.071 47.16V59H185.471Z" fill="#707365"/>
<path d="M100.762 89L90.882 63.24H99.842L105.242 78.92L110.682 63.24H119.682L109.762 89H100.762ZM122.073 89V63.24H142.113V69.6H130.673V72.88H140.633V79.4H130.673V82.64H142.113V89H122.073ZM158.019 89.4C153.299 89.4 149.699 88.28 147.219 86.04C144.739 83.8 143.499 80.5333 143.499 76.24C143.499 71.8933 144.793 68.5733 147.379 66.28C149.966 63.9867 153.713 62.84 158.619 62.84C160.273 62.84 161.739 62.9333 163.019 63.12C164.326 63.3067 165.579 63.6 166.779 64V71.32C165.553 70.8667 164.313 70.56 163.059 70.4C161.806 70.2133 160.526 70.12 159.219 70.12C157.033 70.12 155.326 70.5867 154.099 71.52C152.873 72.4533 152.259 74.0267 152.259 76.24C152.259 78.3733 152.739 79.8933 153.699 80.8C154.686 81.68 156.113 82.12 157.979 82.12C159.126 82.12 160.139 81.9867 161.019 81.72V79.08H156.339V73.84H168.179V86.96C167.139 87.6267 165.779 88.2 164.099 88.68C162.419 89.16 160.393 89.4 158.019 89.4ZM169.788 89L179.668 63.24H188.668L198.588 89H189.628L187.628 83.88H180.708L178.748 89H169.788ZM181.748 77.88H186.588L184.148 71.64L181.748 77.88ZM200.979 89V63.24H208.219L216.699 75.12V63.24H225.299V89H217.979L209.579 77.16V89H200.979Z" fill="#53A62D"/>
</g>
<defs>
<filter id="filter0_i_144_2" x="-1.52588e-05" y="1.77246" width="267.734" height="122.218" filterUnits="userSpaceOnUse" color-interpolation-filters="sRGB">
<feFlood flood-opacity="0" result="BackgroundImageFix"/>
<feBlend mode="normal" in="SourceGraphic" in2="BackgroundImageFix" result="shape"/>
<feColorMatrix in="SourceAlpha" type="matrix" values="0 0 0 0 0 0 0 0 0 0 0 0 0 0 0 0 0 0 127 0" result="hardAlpha"/>
<feOffset dy="4"/>
<feGaussianBlur stdDeviation="2"/>
<feComposite in2="hardAlpha" operator="arithmetic" k2="-1" k3="1"/>
<feColorMatrix type="matrix" values="0 0 0 0 0 0 0 0 0 0 0 0 0 0 0 0 0 0 0.25 0"/>
<feBlend mode="normal" in2="shape" result="effect1_innerShadow_144_2"/>
</filter>
<clipPath id="clip0_144_2">
<rect width="269" height="122" fill="white"/>
</clipPath>
</defs>
</svg>
