<svg width="323" height="94" viewBox="0 0 323 94" fill="none" xmlns="http://www.w3.org/2000/svg">
<path d="M19.6681 63V1.17599H54.9961C61.2681 1.17599 66.1001 2.68 69.4921 5.688C72.8841 8.696 74.5801 12.952 74.5801 18.456C74.5801 21.592 74.0041 24.248 72.8521 26.424C71.7641 28.6 70.2921 30.328 68.4361 31.608C70.9961 32.696 73.0121 34.2 74.4841 36.12C75.9561 37.976 76.6921 40.76 76.6921 44.472C76.6921 50.296 74.8361 54.84 71.1241 58.104C67.4121 61.368 62.2281 63 55.5721 63H19.6681ZM39.2521 25.368H49.4281C53.1401 25.368 54.9961 23.704 54.9961 20.376C54.9961 18.776 54.5161 17.56 53.5561 16.728C52.6601 15.832 51.1881 15.384 49.1401 15.384H39.2521V25.368ZM39.2521 48.888H49.8121C53.7161 48.888 55.6681 47.096 55.6681 43.512C55.6681 40.184 53.6521 38.52 49.6201 38.52H39.2521V48.888ZM82.4806 63V1.17599H130.577V16.44H103.121V24.312H127.025V39.96H103.121V47.736H130.577V63H82.4806ZM168.752 63.96C157.424 63.96 148.784 61.272 142.832 55.896C136.88 50.52 133.904 42.68 133.904 32.376C133.904 21.944 137.008 13.976 143.216 8.472C149.424 2.968 158.416 0.215996 170.192 0.215996C174.16 0.215996 177.68 0.439997 180.752 0.887999C183.888 1.336 186.896 2.04 189.776 3V20.568C186.832 19.48 183.856 18.744 180.848 18.36C177.84 17.912 174.768 17.688 171.632 17.688C166.384 17.688 162.288 18.808 159.344 21.048C156.4 23.288 154.928 27.064 154.928 32.376C154.928 37.496 156.08 41.144 158.384 43.32C160.752 45.432 164.176 46.488 168.656 46.488C171.408 46.488 173.84 46.168 175.952 45.528V39.192H164.72V26.616H193.136V58.104C190.64 59.704 187.376 61.08 183.344 62.232C179.312 63.384 174.448 63.96 168.752 63.96ZM198.918 63V1.17599H219.558V63H198.918ZM227.231 63V1.17599H244.607L264.959 29.688V1.17599H285.599V63H268.031L247.871 34.584V63H227.231Z" fill="#707365" fill-opacity="0.56"/>
<path d="M23.9289 93L0.216875 31.176H21.7209L34.6809 68.808L47.7369 31.176H69.3369L45.5289 93H23.9289ZM75.0744 93V31.176H123.17V46.44H95.7144V54.312H119.618V69.96H95.7144V77.736H123.17V93H75.0744ZM161.346 93.96C150.018 93.96 141.378 91.272 135.426 85.896C129.474 80.52 126.498 72.68 126.498 62.376C126.498 51.944 129.602 43.976 135.81 38.472C142.018 32.968 151.01 30.216 162.786 30.216C166.754 30.216 170.274 30.44 173.346 30.888C176.482 31.336 179.49 32.04 182.37 33V50.568C179.426 49.48 176.45 48.744 173.442 48.36C170.434 47.912 167.362 47.688 164.226 47.688C158.978 47.688 154.882 48.808 151.938 51.048C148.994 53.288 147.522 57.064 147.522 62.376C147.522 67.496 148.674 71.144 150.978 73.32C153.346 75.432 156.77 76.488 161.25 76.488C164.002 76.488 166.434 76.168 168.546 75.528V69.192H157.314V56.616H185.73V88.104C183.234 89.704 179.97 91.08 175.938 92.232C171.906 93.384 167.042 93.96 161.346 93.96ZM189.592 93L213.304 31.176H234.904L258.712 93H237.208L232.408 80.712H215.8L211.096 93H189.592ZM218.296 66.312H229.912L224.056 51.336L218.296 66.312ZM264.449 93V31.176H281.825L302.177 59.688V31.176H322.817V93H305.249L285.089 64.584V93H264.449Z" fill="#53A62D"/>
</svg>
