<svg width="260" height="226" viewBox="0 0 260 226" fill="none" xmlns="http://www.w3.org/2000/svg">
<g filter="url(#filter0_d_96_1102)">
<path d="M5.00002 85.4603C57.7825 103.608 81.0679 240.528 254.197 138.436C236.67 97.2976 213.983 51.0204 142.714 70.438C71.4458 89.8556 5.00002 85.4603 5.00002 85.4603Z" fill="#707365"/>
<path d="M5.00002 85.4603C57.7825 103.608 81.0679 240.528 254.197 138.436C236.67 97.2976 213.983 51.0204 142.714 70.438C71.4458 89.8556 5.00002 85.4603 5.00002 85.4603Z" stroke="#707365" stroke-width="2"/>
</g>
<path d="M105.465 127C106.521 127 107.505 127 108.417 127C109.345 127 110.217 126.992 111.033 126.976V125.32C110.345 125.208 109.745 125.024 109.233 124.768C108.737 124.512 108.321 124.216 107.985 123.88C107.649 123.544 107.401 123.176 107.241 122.776C107.081 122.376 107.001 121.968 107.001 121.552V120.688C107.001 120.208 107.113 119.736 107.337 119.272C107.561 118.808 107.897 118.392 108.345 118.024C108.809 117.656 109.385 117.36 110.073 117.136C110.761 116.912 111.577 116.8 112.521 116.8C113.449 116.8 114.257 116.912 114.945 117.136C115.649 117.36 116.225 117.656 116.673 118.024C117.137 118.392 117.481 118.808 117.705 119.272C117.929 119.736 118.041 120.208 118.041 120.688V121.552C118.041 121.968 117.961 122.376 117.801 122.776C117.641 123.176 117.393 123.544 117.057 123.88C116.721 124.216 116.297 124.512 115.785 124.768C115.289 125.024 114.705 125.208 114.033 125.32V126.928C115.233 126.896 116.289 126.856 117.201 126.808C118.129 126.744 118.969 126.672 119.721 126.592L119.937 129.136C119.249 129.216 118.449 129.288 117.536 129.352C116.641 129.4 115.601 129.44 114.417 129.472C113.249 129.504 111.921 129.528 110.433 129.544C108.961 129.56 107.305 129.568 105.465 129.568V127ZM123.873 133.456H120.873V111.136H123.873V133.456ZM111.033 113.536V111.088H114.033V113.536H118.857V116.08H105.921V113.536H111.033ZM112.521 119.176C112.057 119.176 111.649 119.232 111.297 119.344C110.961 119.44 110.681 119.576 110.457 119.752C110.249 119.928 110.089 120.128 109.977 120.352C109.881 120.56 109.833 120.768 109.833 120.976V121.264C109.833 121.488 109.881 121.704 109.977 121.912C110.089 122.12 110.249 122.312 110.457 122.488C110.681 122.664 110.961 122.808 111.297 122.92C111.649 123.016 112.057 123.064 112.521 123.064C113.449 123.064 114.129 122.872 114.561 122.488C114.993 122.104 115.209 121.696 115.209 121.264V120.976C115.209 120.544 114.993 120.136 114.561 119.752C114.129 119.368 113.449 119.176 112.521 119.176ZM134.22 120.064C133.42 120.064 132.676 119.968 131.988 119.776C131.316 119.584 130.724 119.32 130.212 118.984C129.716 118.632 129.324 118.216 129.036 117.736C128.748 117.24 128.604 116.704 128.604 116.128V115.456C128.604 114.88 128.748 114.352 129.036 113.872C129.324 113.376 129.716 112.96 130.212 112.624C130.724 112.272 131.316 112 131.988 111.808C132.676 111.616 133.42 111.52 134.22 111.52C135.004 111.52 135.74 111.616 136.428 111.808C137.116 112 137.708 112.272 138.204 112.624C138.716 112.96 139.116 113.376 139.404 113.872C139.692 114.352 139.836 114.88 139.836 115.456V116.128C139.836 116.704 139.692 117.24 139.404 117.736C139.116 118.216 138.716 118.632 138.204 118.984C137.708 119.32 137.116 119.584 136.428 119.776C135.74 119.968 135.004 120.064 134.22 120.064ZM138.204 124.264H142.62V111.136H145.644V128.368H142.62V126.712H138.204V124.264ZM133.836 130.696H146.004V133.288H130.788V127.264H133.836V130.696ZM127.164 121C129.004 121 130.62 120.992 132.012 120.976C133.42 120.96 134.676 120.936 135.78 120.904C136.9 120.872 137.9 120.832 138.78 120.784C139.66 120.736 140.492 120.672 141.276 120.592L141.492 123.112C140.724 123.208 139.844 123.288 138.852 123.352C137.876 123.4 136.724 123.44 135.396 123.472V126.4H132.396V123.52C131.612 123.536 130.788 123.544 129.924 123.544C129.06 123.544 128.14 123.544 127.164 123.544V121ZM134.22 113.992C133.404 113.992 132.74 114.152 132.228 114.472C131.716 114.776 131.46 115.16 131.46 115.624V115.96C131.46 116.424 131.716 116.816 132.228 117.136C132.74 117.44 133.404 117.592 134.22 117.592C135.036 117.592 135.7 117.44 136.212 117.136C136.724 116.816 136.98 116.424 136.98 115.96V115.624C136.98 115.16 136.724 114.776 136.212 114.472C135.7 114.152 135.036 113.992 134.22 113.992ZM166.408 119.272H169.48V121.912H166.408V133.456H163.36V111.136H166.408V119.272ZM149.2 126.448C150.4 125.728 151.424 125.088 152.272 124.528C153.12 123.968 153.824 123.456 154.384 122.992C154.96 122.512 155.408 122.064 155.728 121.648C156.048 121.216 156.288 120.784 156.448 120.352C156.624 119.92 156.728 119.464 156.76 118.984C156.808 118.504 156.832 117.968 156.832 117.376V115.768H149.608V113.152H159.88V117.52C159.88 118.336 159.84 119.072 159.76 119.728C159.68 120.368 159.52 120.976 159.28 121.552C159.056 122.112 158.736 122.656 158.32 123.184C157.92 123.712 157.384 124.264 156.712 124.84C156.04 125.4 155.216 126.008 154.24 126.664C153.28 127.304 152.136 128.032 150.808 128.848L149.2 126.448ZM176.972 122.32C176.028 122.32 175.196 122.184 174.476 121.912C173.772 121.64 173.18 121.28 172.7 120.832C172.22 120.368 171.86 119.848 171.62 119.272C171.38 118.68 171.26 118.064 171.26 117.424V116.752C171.26 116.112 171.38 115.504 171.62 114.928C171.86 114.336 172.22 113.816 172.7 113.368C173.18 112.904 173.772 112.536 174.476 112.264C175.196 111.992 176.028 111.856 176.972 111.856C177.916 111.856 178.74 111.992 179.444 112.264C180.164 112.536 180.764 112.904 181.244 113.368C181.724 113.816 182.084 114.336 182.324 114.928C182.564 115.504 182.684 116.112 182.684 116.752V117.424C182.684 118.064 182.564 118.68 182.324 119.272C182.084 119.848 181.724 120.368 181.244 120.832C180.764 121.28 180.164 121.64 179.444 121.912C178.74 122.184 177.916 122.32 176.972 122.32ZM176.972 114.424C176.492 114.424 176.068 114.496 175.7 114.64C175.348 114.768 175.052 114.952 174.812 115.192C174.588 115.416 174.42 115.672 174.308 115.96C174.196 116.248 174.14 116.536 174.14 116.824V117.352C174.14 117.64 174.196 117.928 174.308 118.216C174.42 118.504 174.588 118.768 174.812 119.008C175.052 119.232 175.348 119.416 175.7 119.56C176.068 119.688 176.492 119.752 176.972 119.752C177.452 119.752 177.868 119.688 178.22 119.56C178.588 119.416 178.884 119.232 179.108 119.008C179.348 118.768 179.524 118.504 179.636 118.216C179.748 117.928 179.804 117.64 179.804 117.352V116.824C179.804 116.536 179.748 116.248 179.636 115.96C179.524 115.672 179.348 115.416 179.108 115.192C178.884 114.952 178.588 114.768 178.22 114.64C177.868 114.496 177.452 114.424 176.972 114.424ZM186.068 111.136H189.092V122.632H186.068V111.136ZM189.092 123.64V133.48H174.884V123.64H177.884V126.16H186.092V123.64H189.092ZM186.092 130.984V128.656H177.884V130.984H186.092Z" fill="#EAF2CE"/>
<defs>
<filter id="filter0_d_96_1102" x="0.674866" y="64.8728" width="258.786" height="120.032" filterUnits="userSpaceOnUse" color-interpolation-filters="sRGB">
<feFlood flood-opacity="0" result="BackgroundImageFix"/>
<feColorMatrix in="SourceAlpha" type="matrix" values="0 0 0 0 0 0 0 0 0 0 0 0 0 0 0 0 0 0 127 0" result="hardAlpha"/>
<feOffset dy="4"/>
<feGaussianBlur stdDeviation="2"/>
<feComposite in2="hardAlpha" operator="out"/>
<feColorMatrix type="matrix" values="0 0 0 0 0 0 0 0 0 0 0 0 0 0 0 0 0 0 0.25 0"/>
<feBlend mode="normal" in2="BackgroundImageFix" result="effect1_dropShadow_96_1102"/>
<feBlend mode="normal" in="SourceGraphic" in2="effect1_dropShadow_96_1102" result="shape"/>
</filter>
</defs>
</svg>
