<svg width="209" height="72" viewBox="0 0 209 72" fill="none" xmlns="http://www.w3.org/2000/svg">
<rect width="209" height="71.1978" rx="28" fill="#B6D96A"/>
<path d="M101.064 36.1709V42.4349H90.0481V44.0669H101.736V46.4669H87.1201V40.1549H98.1361V38.5469H87.0001V36.1709H101.064ZM101.064 28.1549H103.992V30.7949H101.064V35.1629H98.0401V23.9309H101.064V28.1549ZM94.8001 34.4909H84.2401V24.5789H87.1921V27.3389H91.8481V24.5789H94.8001V34.4909ZM87.1921 32.0189H91.8481V29.8109H87.1921V32.0189ZM109.06 26.3549V23.9549H111.988V26.3549H115.516V28.8749H105.076V26.3549H109.06ZM110.524 37.4909C109.772 37.4909 109.1 37.3949 108.508 37.2029C107.932 37.0109 107.444 36.7549 107.044 36.4349C106.644 36.1149 106.332 35.7469 106.108 35.3309C105.9 34.8989 105.796 34.4429 105.796 33.9629V33.0509C105.796 32.5709 105.9 32.1229 106.108 31.7069C106.332 31.2749 106.644 30.8989 107.044 30.5789C107.444 30.2589 107.932 30.0029 108.508 29.8109C109.1 29.6189 109.772 29.5229 110.524 29.5229C111.26 29.5229 111.924 29.6189 112.516 29.8109C113.108 30.0029 113.604 30.2589 114.004 30.5789C114.404 30.8989 114.708 31.2749 114.916 31.7069C115.14 32.1229 115.252 32.5709 115.252 33.0509V33.9629C115.252 34.4429 115.14 34.8989 114.916 35.3309C114.708 35.7469 114.404 36.1149 114.004 36.4349C113.604 36.7549 113.108 37.0109 112.516 37.2029C111.924 37.3949 111.26 37.4909 110.524 37.4909ZM110.524 31.8269C109.852 31.8269 109.34 31.9789 108.988 32.2829C108.636 32.5869 108.46 32.9309 108.46 33.3149V33.6989C108.46 34.0829 108.636 34.4269 108.988 34.7309C109.34 35.0349 109.852 35.1869 110.524 35.1869C111.196 35.1869 111.708 35.0349 112.06 34.7309C112.412 34.4269 112.588 34.0829 112.588 33.6989V33.3149C112.588 32.9309 112.412 32.5869 112.06 32.2829C111.708 31.9789 111.196 31.8269 110.524 31.8269ZM119.524 29.4749H121.324V23.9309H124.204V37.8989H121.324V32.0909H119.524V36.9629H116.668V24.2189H119.524V29.4749ZM117.124 46.9469C116.084 46.9469 115.124 46.8589 114.244 46.6829C113.38 46.5069 112.628 46.2509 111.988 45.9149C111.364 45.5789 110.868 45.1629 110.5 44.6669C110.148 44.1709 109.972 43.6029 109.972 42.9629V42.0029C109.972 41.3629 110.148 40.7949 110.5 40.2989C110.868 39.8029 111.364 39.3869 111.988 39.0509C112.628 38.7149 113.38 38.4589 114.244 38.2829C115.124 38.1069 116.084 38.0189 117.124 38.0189C118.148 38.0189 119.1 38.1069 119.98 38.2829C120.86 38.4589 121.612 38.7149 122.236 39.0509C122.876 39.3869 123.372 39.8029 123.724 40.2989C124.092 40.7949 124.276 41.3629 124.276 42.0029V42.9629C124.276 43.6029 124.092 44.1709 123.724 44.6669C123.372 45.1629 122.876 45.5789 122.236 45.9149C121.612 46.2509 120.86 46.5069 119.98 46.6829C119.1 46.8589 118.148 46.9469 117.124 46.9469ZM117.124 40.4669C116.58 40.4669 116.052 40.5069 115.54 40.5869C115.044 40.6669 114.604 40.7869 114.22 40.9469C113.836 41.0909 113.524 41.2749 113.284 41.4989C113.06 41.7229 112.948 41.9709 112.948 42.2429V42.7229C112.948 42.9949 113.06 43.2429 113.284 43.4669C113.524 43.6909 113.836 43.8749 114.22 44.0189C114.604 44.1789 115.044 44.2989 115.54 44.3789C116.052 44.4589 116.58 44.4989 117.124 44.4989C117.668 44.4989 118.188 44.4589 118.684 44.3789C119.196 44.2989 119.644 44.1789 120.028 44.0189C120.412 43.8749 120.716 43.6909 120.94 43.4669C121.18 43.2429 121.3 42.9949 121.3 42.7229V42.2429C121.3 41.9709 121.18 41.7229 120.94 41.4989C120.716 41.2749 120.412 41.0909 120.028 40.9469C119.644 40.7869 119.196 40.6669 118.684 40.5869C118.188 40.5069 117.668 40.4669 117.124 40.4669Z" fill="white"/>
</svg>
